# xmcd
#
# Track frame offsets:
#	150
#	8236
#	26745
#	49697
#	69532
#	89932
#	106723
#	122799
#	140928
#	161267
#	179976
#	200025
#	225507
#	245938
#
# Disc length: 3546 seconds
#
# Revision: 0
# Processed by: cddbd v1.4PL0 Copyright (c) Steve Scherf et al.
# Submitted via: dBpowerAMP V4.0
#
DISCID=d30dd80e
DTITLE=2 pac - until end of time - cd2
DYEAR=1900
DGENRE=Gangsta
TTITLE0=2pac - big syke interlude
TTITLE1=2pac - my closest roaddddgz
TTITLE2=2pac - n***** nature remix
TTITLE3=when thugz cry
TTITLE4=u don´t have 2 worry
TTITLE5=2pac - this ain´t living
TTITLE6=2pac - why u turn on me
TTITLE7=2pac - lastonesleft
TTITLE8=2pac - thug n u thug n me
TTITLE9=2pac - words 2 my first born
TTITLE10=2pac - let em have it remix
TTITLE11=2pac - running on e
TTITLE12=2pac - when i bet free
TTITLE13=2pac - until the end of time (rp remix)
EXTD=until end of time - cd2
EXTT0=
EXTT1=
EXTT2=
EXTT3=
EXTT4=
EXTT5=
EXTT6=
EXTT7=
EXTT8=
EXTT9=
EXTT10=
EXTT11=
EXTT12=
EXTT13=
PLAYORDER=
